<svg xmlns="http://www.w3.org/2000/svg" id="Lager_2" viewBox="0 0 29.08 20.29"><defs><style>.cls-1{fill:transparent}</style></defs><g id="Lager_1-2" fill="#272cbc"><path d="m21.65 3.61 6.91.29c.29 2.35.15 4.72.24 7.08.02.46.24.92.25 1.43.02.95.13 6.5-.23 6.75-3.3.77-6.96-.02-10.22.34-.99.11-1.79.63-2.87.73-2.62.25-6.19-.4-8.88-.5-2.28-.08-4.58.08-6.85.01L.47 3.77l1.93-.11.11-.96c.22-.33 3.55-.34 4.05-.18.76.23.49 1.68 1.34 1.13.18-.12 1.15-2.7 1.7-2.98 2.52-.43 5.24-.83 7.8-.6s2.91 1.64 4.25 3.54ZM18.92 1.3l-8.67.2-1.13 2.16 11.04.24-1.24-2.6Zm8.65 3.6-8.6-.27 2.84 3.76c1.22 2.6 1.61 5.79 0 8.31l-1.39 1.84c2.56-.38 5.13-.29 7.68 0l-.51-13.65ZM9.84 4.86H1.2L.96 18.78h8.16c-3.73-3.18-4.43-8.11-1.32-12l2.04-1.92Zm3.3.06C2.95 6.66 6.28 22.01 16.94 18.8c8.69-2.62 4.64-15.31-3.8-13.88Z"/><path d="M14.35 5.89c-10.22.85-5.74 15.36 3.09 11.01 5.66-2.78 3.19-11.53-3.09-11.01Z" class="cls-1"/><path d="M14.35 5.89c6.29-.52 8.75 8.23 3.09 11.01C8.61 21.25 4.13 6.74 14.35 5.89Zm-3.23 9.21c2.72 2.54 7.78.91 8.09-2.91.65-8.05-12.24-6.05-9.01 1.55.13.3.7 1.14.93 1.35Z"/><path d="M12.32 14.14c2.49 2.6 7.43-.86 5.31-4.23-2.44-3.88-8.48.91-5.31 4.23Z" class="cls-1"/><path d="M12.32 14.14c-3.17-3.32 2.87-8.11 5.31-4.23 2.12 3.37-2.82 6.83-5.31 4.23Z"/></g></svg>