<svg xmlns="http://www.w3.org/2000/svg" viewBox="0 0 31.8 24.9"><path d="m24.5 24.9-.2-3.3c5.5-1.1 7.9-7 7.4-12.1C30.9.4 18.5-1 11.6.5-5 4-3.4 24.7 14.1 23.7c1.5 0 4.4-1 5.5-.9.8 0 3.5 2.6 4.9 2.1Zm-.7-1c-.9-.5-2-1.3-3-1.7-2.2-.9-7 .3-9.9 0C.1 21.3-2.3 9.3 6.8 3.7c8.3-5.2 26.5-3.3 23.7 10-.8 3.8-3.4 6.5-7.3 7.1l.6 3.1Z" fill="#272cbc"/><path d="M16.8 9.5c-.4.3-1.3-1.4-1.7-1.8-2.2-2.3-4.3-.8-3.4 2.2.3.9 3.7 6.9 4.3 7 1.1-.6 1.9-2 2.7-3 .7-.9 2.5-3.3 2.6-4.3.3-2.9-3.9-2.2-4.5 0ZM10.1 10.7c-.6 0-2.9-1.2-3.1-.4-.4 1.2 3.8 1.3 3.1.4ZM24.8 10.5c-.5-.2-2.4 0-2.2.8.2.9 3.9-.3 2.2-.8ZM22.6 12.6c-.2.8 2.2 1.6 2.4 1.4 0-1.3-1.3-1.6-2.4-1.4ZM7.5 13.4c.9.2 2.5 0 2.4-1.2-.1-.1-2.6.3-2.4 1.2Z" fill="#272cbc"/></svg>