<svg xmlns="http://www.w3.org/2000/svg" viewBox="0 0 31.78 24.93"><path d="m7.26 24.88.21-3.33C1.93 20.41-.41 14.58.06 9.41.87.38 13.24-.96 20.22.51c16.57 3.5 14.96 24.16-2.53 23.17-1.52-.09-4.38-1-5.54-.93-.81.04-3.49 2.58-4.9 2.13Zm.72-.96c.91-.46 2.05-1.34 2.96-1.72 2.22-.93 6.99.28 9.88.04C31.63 21.33 34.1 9.31 25 3.66 16.63-1.53-1.48.44 1.32 13.66c.81 3.81 3.4 6.46 7.28 7.13l-.62 3.13Z" fill="#272cbc"/><path d="M14.94 9.52c.41.29 1.33-1.44 1.67-1.8 2.17-2.32 4.32-.8 3.42 2.22-.27.91-3.69 6.91-4.29 7.01-1.11-.62-1.92-2-2.68-3.03-.68-.91-2.54-3.34-2.63-4.33-.28-2.89 3.94-2.19 4.51-.06ZM21.66 10.72c.6-.04 2.86-1.21 3.12-.36.37 1.24-3.83 1.31-3.12.36ZM6.93 10.52c.54-.17 2.41.03 2.24.8-.21.94-3.91-.27-2.24-.8ZM9.17 12.64c.25.82-2.25 1.59-2.4 1.44-.09-1.31 1.34-1.55 2.4-1.44ZM24.29 13.36c-.89.23-2.54.06-2.4-1.2.1-.1 2.64.34 2.4 1.2Z" fill="#272cbc" /></svg>