<svg xmlns="http://www.w3.org/2000/svg" viewBox="0 0 19.08 30.89"><path d="M9.39 30.82c-.28.16-.59 0-.83-.19-.52-.41-2.07-2.73-2.56-3.44C1.74 20.91-4.24 6.59 4.45 1.53c9.13-5.32 15.24 4.29 14.57 12.65-.51 6.39-5.81 11.93-9.64 16.64Zm-.69-.92c6.04-5.99 13.05-17.36 6.47-25.31-4.63-5.61-13.2-2.84-13.91 4.07S5.11 24.09 8.7 29.9Z" fill="#272cbc"/><path d="M5.4 8.84c1.63-1.51 3.44.84 4.26 2.1.37-1.37 1.81-3.33 3.44-2.84 2.35 2.02-.75 6.37-2.18 8.29-.55.74-1.15 2.16-2.1 1.52-1.81-1.21-5.33-7.3-3.41-9.07Z" fill="#272cbc"/></svg>