<svg xmlns="http://www.w3.org/2000/svg" viewBox="0 0 28.73 33.09"><path d="M14.13 27.35c1.47-1.54.76-4.36.98-6.33.11-1.02.63-2.54 1.09-3.47.24-.49 1.21-1.69 1.26-1.88.14-.55-.65-1.09-.19-1.73.33-.08.67-.04 1 .04.7.16 5.41 3.09 6.16 3.68.37.29.91.71.98 1.19.26 1.65-.98.74-1.52.87-.45.1-2.31 2.82-2.61 3.4-1.65 3.23-1.26 8.33-5.41 9.71s-6.45-2.51-6.78-6.07c-.45-4.94.59-10.61.24-15.36-.05-.71-.36-2.81-.97-3.12-1.78-.9-5.78 3.76-7.08 4.87l-1.3-1.06c.88-2.26 2.48-4.16 4.29-5.73 3.63-3.14 8.02-5.02 9.29 1.27s-1.14 13.29.55 19.73ZM11.17 4.87c-1.31-1.3-4.27.75-5.44 1.71-.56.46-4.54 4.47-4.55 4.8 0 .11.5.57.72.25 1.98-2.97 7.84-7.83 8.4-1.21.46 5.35-.82 11.26.05 16.51s5.75 7.24 8.04 1.44c1.28-3.23 1.44-7.28 4.86-9.3-.13-.3-3.65-2.6-4.15-2.82-.32-.13-.54-.3-.89-.08-.91.58-2.05 5.32-2.15 6.5-.15 1.72.4 3.61-.62 5.14-1.4 2.12-2.18.15-2.63-1.43-1.48-5.21 1.69-18.23-1.64-21.52Z"/><path d="M22.06 14.87c.2-2.1-3.48-6.31-1.94-8.05 1.31-1.47 3.04.97 3.49 2.05.94-1.41 3.28-3.99 4.64-1.76 2.06 3.37-3.11 7.58-6.2 7.76ZM22.94.02c.66-.17 1.12.61 1.39.61s1.28-1.02 1.77 0c.56.63-1.56 3.84-1.79 3.91-.66.2-2.13-2.48-2.22-3.05s.27-1.32.85-1.47ZM18.45 5.63c-.23.82-2.18-.56-2.52-.84-1.62-1.31-.65-2.66 1.08-1.44-.53-1.18 1.44-2.3 1.44-1.32v3.6Z"/ fill="#272cbc"></svg>