<svg xmlns="http://www.w3.org/2000/svg" viewBox="0 0 47.62 295.39"><defs><clipPath id="a"><path d="M0 0h47.62v295.39H0z" style="fill:none"/></clipPath></defs><g style="clip-path:url(#a)"><path d="M24.31 2c1.95 2.02 1.95 6.07 0 8.09-1.96 2.02-1.96 6.07 0 8.09 1.95 2.02 1.95 6.07 0 8.09-1.96 2.02-1.96 6.07 0 8.09 1.95 2.02 1.95 6.07 0 8.09-1.96 2.02-1.96 6.07 0 8.09 1.95 2.02 1.95 6.07 0 8.09-1.96 2.02-1.96 6.07 0 8.09 1.95 2.02 1.95 6.07 0 8.09-1.96 2.02-1.96 6.07 0 8.09 1.95 2.02 1.95 6.07 0 8.1-1.96 2.02-1.96 6.07 0 8.09 1.95 2.02 1.95 6.07 0 8.09-1.96 2.02-1.96 6.07 0 8.09 1.95 2.02 1.95 6.07 0 8.09-1.96 2.02-1.96 6.07 0 8.09 1.95 2.02 1.95 6.07 0 8.09-1.96 2.02-1.96 6.07 0 8.09 1.95 2.02 1.95 6.07 0 8.09-1.96 2.02-1.96 6.07 0 8.09 1.95 2.02 1.95 6.07 0 8.09-1.96 2.02-1.96 6.07 0 8.09 1.95 2.02 1.95 6.07 0 8.09-1.96 2.02-1.96 6.07 0 8.09 1.95 2.02 1.95 6.07 0 8.09-1.96 2.02-1.96 6.07 0 8.09 1.95 2.02 1.95 6.07 0 8.09-1.96 2.02-1.96 6.07 0 8.09 1.95 2.02 1.95 6.07 0 8.09-1.96 2.02-1.96 6.07 0 8.1 1.95 2.02 1.95 6.07 0 8.09-1.96 2.02-1.96 6.07 0 8.09 1.95 2.02 1.95 6.07 0 8.09-1.96 2.02-1.96 6.07 0 8.09 1.95 2.02 1.95 6.07 0 8.09-1.96 2.02-1.96 6.07 0 8.09" style="stroke-width:1.06px;stroke:#272cbc;stroke-linecap:round;fill:none"/><path d="M24.59 67.77H.5m23.31 79.82H.5m22.53 79.83H.5m45.62-119.74H24.26m21.86-79.53H23.59m22.53 159.36H25.24m21.88 79.82H25.73" style="fill:none;stroke:#272cbc;stroke-linecap:round"/></g></svg>