<svg xmlns="http://www.w3.org/2000/svg" viewBox="0 0 30.66 35.5"><path d="M18.93 1.25c1.09 1.02 1.73 3.03 1.42 4.49-.13.59-1.25 1.85-.49 2.15.08.03.72-1.17.96-1.44 5.38-6.02 11.89 1.29 9.22 7.54-.92 2.13-4.26 5.63-6.1 7.1-1.15.92-2.55 1.96-3.95 2.41l.96 2.15c-2.32.02-1.8 1.91-1.31 3.59.58 2 2.62 4.46.23 6.25-.56.08-.33-.18-.3-.54.09-1 .33-1.8.12-2.89-.36-1.89-2.22-3.65-1.12-6.04l-.97-.52.93-2.35-5.14-5.18-2.52 1.91 1.44 1.8c-.82 1.32-1.84-.24-1.68 2.15.19 2.83 3.03 4.8 2.34 8.11-.11.51-1.24 2.7-1.86 2.09-.02-.9.59-1.68.7-2.54.41-3.3-3.29-5.5-1.9-8.98l-1.44-.37 1.16-2.36C7.29 17.31 4.78 15 2.85 12.16.61 8.92-1.94 4.21 2.23 1.3 4.56-.32 9.19-.58 9.9 2.84c2.09-2.42 6.35-4.1 9.03-1.6ZM5.04 1.22c-1.53.18-3.52 1.6-3.77 3.2C.46 9.55 6.96 15.38 10 18.94l.68.2 2.08-2.01c-2.04-2.35-3.81-4.9-3.6-8.17.3-4.75 6.93-6.6 9.73-2.76.91-1.45.23-3.47-1.15-4.36-2.93-1.89-6.02.14-7.97 2.44C8.61 2.53 7.4.94 5.04 1.22Zm12.69 5.55c-2.77-2.73-7.4-.79-7.33 3.13.09 4.49 6.38 9.68 9.21 12.82 3.55-2.85 10.23-7.39 9.7-12.53-.43-4.16-4.4-6.4-7.66-3.16-.66.66-1.07 1.68-1.81 2.28-.54.12-1.64-2.09-2.1-2.55h-.01Z" fill="#272cbc" /></svg>