<svg xmlns="http://www.w3.org/2000/svg" viewBox="0 0 24.51 29.84"><path d="m22.86 18.22 1.53.51c.2.24.15.5 0 .74-.57.93-6.13.28-7.41.46-.69 1.51-1.82 2.41-3.49 2.68v3.79c1.05.17 2.19.49 3.08 1.12.82.58 2.13 2.07.39 2.28-1.12.13-9.02-.02-9.49-.49.76-1.75 2.51-2.38 4.21-2.86v-3.63c-2.09-.28-3.33-.92-4.44-2.74-1 .23-6.98.11-7.2-.75s.86-.76 1.17-.94c.94-.54 1.29-10.24 5.46-11.11 1.3-.27 1.74.43 2.35.42.38 0 .87-.62 1.67-.72 1.74-.22 2.71.74 3.37.72.42-.01.76-.55 1.24-.66 5.3-1.27 7.17 7.5 7.55 11.19ZM3.49 15.38c5.96-.12 11.93.09 17.88 0-.94-3.06-2.41-8.69-6.72-7.2-.14.2 2.34 3.7 1.08 4.55-.41.19-.43-.38-.55-.63-1.19-2.52-1.77-5.27-5.47-3.7l.38 3.85c-.52.65-.92-1.97-1.01-2.23-1.46-3.91-4.27-.44-5.17 1.92-.16.41-1.02 3.13-1.01 3.31.04.58.56.12.59.12Zm-1.32 2.88h19.68l-.24-2.16-18.6-.02-.34.03-.5 2.14Zm12.96 1.68h-6c-.14.56.11.4.3.55 1.38 1.09 3.66 1.2 5.15.22.32-.21.65-.28.55-.77Zm-5.52 8.64h5.76c-.07-.36-1.1-.62-1.38-.66-.78-.11-1.57-.04-2.36-.07l-2.03.73ZM9.65.54c1.11-.6 1.56-.16 2.45.43.36-.06.59-.97 1.47-.97 2.49-.01-.21 5.02-1.23 5.77-.7.15-3.42-4.19-2.7-5.23Z" fill="#272cbc" /></svg>