<svg xmlns="http://www.w3.org/2000/svg" viewBox="0 0 24.97 31.95"><path d="M5.3 19.97c.09 2.95-.22 5.85-1 8.69 1.19.72 2.09 1.83 1.93 3.28-.87-.04-6.09-.93-6.24-1.56.56-1.27 2.02-1.97 3.36-1.79l.97-8.51c-.1-.67-1.07-.77-1.58-1.31-1.78-1.87-1.36-5.86-1-8.23.14-.89.8-4.18 1.13-4.81.45-.87 6.89-.04 7.58.52.73.6.23 4.75.07 5.87-.44 3.13-1.38 7.64-5.22 7.86ZM2.88 9.87H9.6L9.83 7c-2.15-.25-4.32-.58-6.47-.73l-.48 3.6Zm6.48.96H2.88c-.41 2.03-.64 7.81 2.28 7.94 3.7.15 3.97-5.3 4.2-7.94ZM5.04 30.75c-.55-1.47-2.41-1.9-3.6-.83l3.6.83ZM19.39 5.84c1.7 3.51 4.56 10.52-.18 12.69l2.63 8.38c1.26-.48 3.07.28 3.13 1.77-.05.28-4.92 1.56-5.42 1.59-.73.04-.24-1.04-.13-1.33.29-.75.77-1.31 1.46-1.69l-2.81-8.22c-5.27-.09-5.88-7.54-6.29-11.52 2.45-.79 4.99-1.58 7.6-1.67Zm-.45.92-6.47 1.19.74 3.09 6.94.5-1.22-4.79Zm-5.5 5.03c.49 1.77 1.33 5.63 3.49 5.98 3.48.57 4.27-2.4 3.48-5.16l-6.98-.82Zm10.08 16.08c-.7-.74-2.96.03-3.12 1.19.11.09 2.43-.56 2.79-.69.25-.09.69-.12.33-.5ZM11.52 4.35c0-.76-2.17-4.01-1.08-4.32.97-.28 1.31 1.48 1.45 2.15.06.27.53 2.83-.37 2.17ZM16.3 1.25c.65.91-2.64 3.09-2.86 2.86-.26-1.03 2.01-4.05 2.86-2.86ZM8.54 1.81c.66.5 1.34 1.41 1.3 2.3-.19.19-2.61-1.39-2.76-1.68-.64-1.23.47-1.36 1.46-.62Z" fill="#272cbc"/></svg>