<svg xmlns="http://www.w3.org/2000/svg" viewBox="0 0 31.62 22.08"><path d="M15.85 0c14.2-.39 15.08 20.88 1.6 22.02C1.75 23.35.26.43 15.85 0ZM8.54 3.63c-5.5 5.04-2.29 16.65 5.56 17.43 13.04 1.3 16.11-14.18 6.09-19.05-3.4-1.65-8.84-.96-11.64 1.61Z" fill="#272cbc"/><path d="m3.18 6.31.48.24c.82-.59-.6-4.44.36-4.44.45.29.33.64.37 1.07.13 1.44.62 4.75-.49 5.76-.27.25-.9.25-.97.52-.16.62.25 1.14.25 1.4v9.12c-.84.99-1.09-.53-1.17-1.23-.14-1.23-.22-2.99-.28-4.28-.07-1.38.29-4.15.02-5.25-.06-.24-.75-.3-1.08-.65-.94-.99-.71-4.34-.38-5.64.1-.4-.24-.7.49-.58v4.08h.48V2.95c0-.09.3-.37.24-.6h.48v4.32h.48V2.71l.72-.36v3.96Zm.48 1.08-2.64.12c.7 1.44 2.08 1.39 2.64-.12ZM29.82 12.67l-1.34-.22c-.78-1.09 1.06-9.1 2.42-10.33.33-.01.58 2.33.61 2.75.1 1.61-.25 3.08-.26 4.56-.02 3.08.67 7.52.24 10.32-.19 1.23-.87 1.56-1.36.19-.72-2.05-.09-5.07-.31-7.25Zm.72-1.8c.12-1.84-.09-3.79 0-5.64l-.84 2.64-.6 3.71 1.07.35c.32-.06.36-.79.37-1.06ZM16.25 4.4c4.32-.08 7.28 4.75 6.05 8.8C19.88 21.19 8 18.42 9.46 9.72c.48-2.86 4.03-5.27 6.78-5.32Zm-1.14 1.37c-5.51.93-6.48 8.73-.84 10.57 8.78 2.87 9.79-12.07.84-10.57Z" fill="#272cbc"/></svg>