<svg xmlns="http://www.w3.org/2000/svg" viewBox="0 0 25.73 30.46"><path d="M15.87 16.13 5.61 18.64c.36 3.1.93 6.89-.33 9.82-1.35 3.12-5.57 2.42-5.26-.93.2-2.25 2.61-3.03 4.57-2.76-.05-1.72-.03-3.7-.24-5.4-.12-.98-1.37-5.53-1.1-5.9L16 10.22l.58.76c-.1 4.47 3.22 12.03 1.74 16.13-.97 2.69-5.41 3.12-5.81.41-.48-3.24 4.3-3.66 4.53-4.34l-1.18-7.05Zm-.73-4.32L5.06 14.33c-.61.44.3 2.32.36 3.01l9.96-2.41-.24-3.12ZM15.44 1.07c1.13-.63 1.97-.32 2.7.66 1.64-2.72 3.59-2.16 2.89 1.22-.12.6-1.89 4.66-2.21 4.76-.93.3-2.43-2.28-2.85-3.09-.6-1.16-1.29-2.22-.54-3.55ZM24.21 15.36l-.55.19c-.21 0-.37-.08-.52-.21s-2.41-2.97-2.49-3.15c-.88-2.04 1.01-2.61 2.41-1.34.3-1.05.81-1.75 2-1.39 1.89.57-.81 4.7-.85 5.9Z" fill="#272cbc"/></svg>