<svg xmlns="http://www.w3.org/2000/svg" viewBox="0 0 26.84 23.42"><path d="M7.54 6.21c2.76-.35 5.34.75 7.17 2.78 4.35-2.4 9.89-1.23 11.65 3.71 2.3 6.47-4.08 12.33-10.31 10.31-.66-.22-2.2-1.27-2.33-1.27-.19 0-2.39 1.24-3.43 1.38-13.25 1.81-13.2-15.6-2.75-16.91Zm5.81 4.24v-.34c-7.51-8.08-17.16 6.3-8.32 10.72 1.82.91 5.83 1.38 7.36-.17.49-.49-.36-1.16-.59-1.8-1.01-2.73-1.02-6.65 1.55-8.41Zm5.23-1.12c-.44.06-2.79.71-2.82 1.01 1.63 2.34 1.43 5.3.42 7.86-.67 1.69-2.27 2.43.36 3.35 3.23 1.12 7.55-1.04 8.46-4.36 1.13-4.12-1.96-8.46-6.43-7.87Zm-4.51 9.78c1.21-2.34 1.81-4.87.5-7.33-.14-.25-.21-.68-.61-.59-1.08 1.32-1.44 3-1.33 4.69.03.4.64 3.81 1.44 3.23Z" fill="#272cbc"/><path d="m13.84 2.07.5-.15C14.87.77 16.28-.82 17.45.51c1.49 1.69-1.6 5.09-3.01 6.04-1.27-.71-2.93-2-3.52-3.35C9.55.09 12.79-.73 13.85 2.07Z" fill="#272cbc" /></svg>